<svg width="617" height="617" viewBox="0 0 617 617" fill="none" xmlns="http://www.w3.org/2000/svg">
<g clip-path="url(#clip0)">
<path d="M531.896 255.321H489.344C467.19 173.687 393.089 117.017 308.499 117.017C223.91 117.017 149.808 173.687 127.655 255.321H85.1028V361.7H127.655C149.808 443.334 223.91 500.004 308.499 500.004C393.089 500.004 467.19 443.334 489.344 361.7H531.896V255.321Z" fill="#5A6470"/>
<path d="M457.431 308.51C457.431 390.762 390.752 457.441 308.5 457.441C226.249 457.441 159.57 390.762 159.57 308.51C159.57 226.259 226.249 159.58 308.5 159.58C390.752 159.58 457.431 226.259 457.431 308.51Z" fill="#CFDFE8"/>
<path d="M223.397 255.321H393.604V297.872H223.397V255.321Z" fill="#7FCAC9"/>
<path d="M351.051 255.321H393.603V297.872H351.051V255.321Z" fill="#92CDDE"/>
<path d="M308.5 255.321H351.052V297.872H308.5V255.321Z" fill="#7D8D9C"/>
<path d="M393.603 361.7C393.603 373.449 384.077 382.976 372.327 382.976C360.578 382.976 351.051 373.449 351.051 361.7C351.051 349.95 360.578 340.424 372.327 340.424C384.077 340.424 393.603 349.95 393.603 361.7Z" fill="#E1462B"/>
<path d="M287.224 202.131H329.775V223.407H287.224V202.131Z" fill="#394D5C"/>
<path d="M351.052 202.131H372.327V223.407H351.052V202.131Z" fill="#394D5C"/>
<path d="M244.672 202.131H265.948V223.407H244.672V202.131Z" fill="#394D5C"/>
<path d="M42.5513 234.045H85.103V382.976H42.5513V234.045Z" fill="#AABECE"/>
<path d="M0 255.321H42.5517V361.7H0V255.321Z" fill="#5A6470"/>
<path d="M574.449 382.976H531.897V234.045H574.449V382.976Z" fill="#AABECE"/>
<path d="M617 361.7H574.449V255.321H617V361.7Z" fill="#5A6470"/>
<path d="M202.121 329.786H308.5V351.062H202.121V329.786Z" fill="#394D5C"/>
<path d="M223.397 372.338H319.139V393.614H223.397V372.338Z" fill="#394D5C"/>
<path d="M85.1028 308.511H117.017V329.786H85.1028V308.511Z" fill="#CFDFE8"/>
</g>
<g clip-path="url(#clip1)">
<path d="M493.643 121.275C493.622 121.217 493.597 121.163 493.569 121.109L431.156 0.812655C430.897 0.313906 430.383 0 429.82 0C429.257 0 428.742 0.313906 428.483 0.812655L366.07 121.109C366.042 121.163 366.017 121.218 365.996 121.275C359.419 138.887 360.092 158.005 367.893 175.107C375.695 192.211 389.69 205.251 407.302 211.828C414.515 214.522 422.075 216.007 429.774 216.241C429.789 216.242 429.805 216.242 429.82 216.242C429.835 216.242 429.85 216.242 429.866 216.241C437.564 216.006 445.125 214.521 452.337 211.828C469.948 205.251 483.944 192.21 491.746 175.107C499.547 158.005 500.221 138.887 493.643 121.275Z" fill="#68CCEA"/>
<path d="M434.632 204.172C419.671 189.429 411.347 169.741 411.193 148.735C411.192 148.668 411.196 148.599 411.204 148.532L427.978 1.7861L366.07 121.109C366.042 121.163 366.017 121.218 365.996 121.275C359.419 138.887 360.092 158.005 367.893 175.107C375.695 192.211 389.69 205.251 407.302 211.828C414.515 214.522 422.075 216.007 429.774 216.241C429.789 216.242 429.804 216.242 429.82 216.242C429.835 216.242 429.85 216.242 429.866 216.241C435.478 216.07 441.016 215.226 446.4 213.742C442.225 210.965 438.284 207.769 434.632 204.172Z" fill="#5ABCE2"/>
<path d="M590.249 153.551C590.227 153.494 590.203 153.439 590.175 153.385L559.401 94.0705C559.141 93.5717 558.627 93.2578 558.064 93.2578C557.501 93.2578 556.987 93.5712 556.727 94.0705L525.953 153.385C525.925 153.439 525.9 153.494 525.879 153.551C522.565 162.426 522.904 172.06 526.836 180.677C530.766 189.295 537.819 195.867 546.695 199.181C550.329 200.538 554.139 201.286 558.018 201.405C558.033 201.405 558.049 201.405 558.064 201.405C558.079 201.405 558.095 201.405 558.11 201.405C561.988 201.286 565.798 200.538 569.433 199.181C587.751 192.34 597.089 171.87 590.249 153.551Z" fill="#5ABCE2"/>
<path d="M590.249 153.551C590.227 153.494 590.203 153.439 590.175 153.385L559.401 94.0705C559.141 93.5717 558.627 93.2578 558.064 93.2578C558.061 93.2578 558.058 93.2589 558.055 93.2589L545.94 163.708C545.929 163.774 545.922 163.841 545.919 163.907C545.406 174.335 548.984 184.336 555.994 192.071C558.997 195.385 562.479 198.107 566.297 200.184C567.354 199.898 568.401 199.567 569.433 199.182C587.751 192.34 597.089 171.87 590.249 153.551Z" fill="#68CCEA"/>
<path d="M528.903 247.266L508.398 207.743C508.139 207.244 507.625 206.931 507.062 206.931C506.499 206.931 505.985 207.244 505.725 207.743L485.218 247.266C485.189 247.32 485.164 247.377 485.144 247.433C480.489 259.9 486.843 273.83 499.31 278.486C501.783 279.408 504.376 279.918 507.015 279.999C507.031 280 507.047 280 507.062 280C507.077 280 507.093 280 507.108 279.999C509.745 279.918 512.338 279.409 514.813 278.486C527.279 273.83 533.633 259.9 528.978 247.433C528.957 247.375 528.931 247.32 528.903 247.266Z" fill="#5ABCE2"/>
<path d="M528.977 247.433C528.956 247.375 528.932 247.32 528.904 247.266L508.399 207.743C508.139 207.244 507.625 206.931 507.062 206.931C506.902 206.931 506.748 206.962 506.6 207.01L498.182 256.538C498.17 256.605 498.163 256.674 498.159 256.743C497.719 266.113 502.086 274.616 509.081 279.858C511.037 279.637 512.958 279.178 514.813 278.486C527.279 273.83 533.634 259.899 528.977 247.433Z" fill="#68CCEA"/>
</g>
<defs>
<clipPath id="clip0">
<rect width="617" height="617" fill="white"/>
</clipPath>
<clipPath id="clip1">
<rect width="280" height="280" fill="white" transform="translate(337)"/>
</clipPath>
</defs>
</svg>
